<svg width="14" height="18" viewBox="0 0 14 18" fill="none" xmlns="http://www.w3.org/2000/svg">
<path d="M1.78563 10.1743L1.77959 10.1666L1.77326 10.1591C-0.128436 7.91981 0.124282 4.15786 2.36942 2.17498C4.89849 -0.058337 9.02133 -0.0583058 11.55 2.17495C13.7951 4.15783 14.0479 7.9198 12.1462 10.1591L12.1398 10.1666L12.1338 10.1743L6.95972 16.7737L1.78563 10.1743ZM4.23016 6.08669C4.23016 7.54005 5.54264 8.61564 7.02749 8.61564C8.51234 8.61564 9.82481 7.54005 9.82481 6.08669C9.82481 4.63332 8.51234 3.55773 7.02749 3.55773C5.54264 3.55773 4.23016 4.63332 4.23016 6.08669Z" stroke="white"/>
</svg>
