<svg width="21" height="14" viewBox="0 0 21 14" fill="none" xmlns="http://www.w3.org/2000/svg">
<path d="M10.3796 7.7219L10.3796 7.72188L10.3754 7.72437C10.3196 7.75727 10.2399 7.78045 10.153 7.78045H10.1486C10.0337 7.78045 9.94877 7.7469 9.90961 7.71794L9.9089 7.71742L1.22983 1.33036H19.0617L10.7825 7.43045L10.7821 7.43074L10.4164 7.70085L10.4127 7.70293L10.4127 7.70291L10.4106 7.70412L10.3796 7.7219ZM12.6967 7.98341L19.159 12.6194H1.08161L7.55697 7.94968L8.90243 8.94045L8.90355 8.94126C9.25391 9.19739 9.69803 9.32897 10.1515 9.32897C10.6043 9.32897 11.0487 9.19635 11.3994 8.93944L11.4003 8.93876L12.6967 7.98341ZM6.22007 6.96568L0.4 11.1635V2.68245L6.22007 6.96568ZM19.8464 2.71641V11.1684L14.0345 6.99841L19.8464 2.71641Z" stroke="white" stroke-width="0.8"/>
</svg>
