<svg width="21" height="19" viewBox="0 0 21 19" fill="none" xmlns="http://www.w3.org/2000/svg">
<mask id="path-1-inside-1_1_133" fill="white">
<path d="M20.25 14.5405C20.2929 14.8261 20.1927 15.0745 19.9497 15.2856L17.0972 17.7443C16.9685 17.8685 16.8006 17.9741 16.5932 18.0609C16.3859 18.1479 16.1822 18.2038 15.9821 18.2286C15.9678 18.2286 15.9248 18.2318 15.8533 18.238C15.7819 18.2442 15.6889 18.2473 15.5745 18.2473C15.3028 18.2473 14.8631 18.207 14.2554 18.1262C13.6477 18.0455 12.9043 17.8468 12.025 17.5302C11.1455 17.2135 10.1482 16.7384 9.033 16.1052C7.91776 15.4719 6.73097 14.6026 5.47272 13.4974C4.47183 12.6405 3.64253 11.8209 2.98481 11.0386C2.32709 10.2563 1.79805 9.5329 1.3977 8.86853C0.997308 8.20416 0.697043 7.60188 0.496867 7.0617C0.29669 6.52151 0.160856 6.05583 0.0893645 5.66466C0.0178729 5.27349 -0.0107237 4.96614 0.00357458 4.74262C0.0178729 4.51909 0.0250221 4.39491 0.0250221 4.37007C0.0536187 4.19622 0.117961 4.01926 0.218049 3.8392C0.318138 3.65914 0.439673 3.51322 0.582657 3.40146L3.43517 0.924049C3.63535 0.750196 3.86412 0.663269 4.12149 0.663269C4.30737 0.663269 4.4718 0.709837 4.61478 0.802973C4.75777 0.896108 4.8793 1.01098 4.97939 1.14758L7.27427 4.92889C7.40296 5.12758 7.4387 5.34489 7.38151 5.58084C7.32431 5.81678 7.20278 6.01547 7.0169 6.17691L5.96597 7.08964C5.93738 7.11447 5.91235 7.15483 5.89091 7.21071C5.86946 7.2666 5.85874 7.31316 5.85874 7.35042C5.91593 7.6112 6.04461 7.90923 6.24479 8.24452C6.41637 8.54256 6.68089 8.90579 7.03835 9.33421C7.39581 9.76263 7.9034 10.2562 8.56112 10.815C9.20454 11.3863 9.77648 11.8302 10.2769 12.1469C10.7773 12.4635 11.1956 12.6964 11.5316 12.8454C11.8676 12.9944 12.125 13.0845 12.3037 13.1154L12.5717 13.162C12.6003 13.162 12.6469 13.1527 12.7112 13.1341C12.7755 13.1154 12.822 13.0937 12.8506 13.0689L14.0731 11.9885C14.3306 11.7898 14.6307 11.6905 14.9739 11.6905C15.2171 11.6905 15.41 11.7277 15.553 11.8022H15.5744L19.7137 13.9257C20.0141 14.0873 20.1928 14.2921 20.25 14.5405Z"/>
</mask>
<path d="M20.25 14.5405L21.2389 14.3919L21.2331 14.3536L21.2245 14.316L20.25 14.5405ZM19.9497 15.2856L20.6026 16.0431L20.6056 16.0405L19.9497 15.2856ZM17.0972 17.7443L16.4443 16.9868L16.423 17.0052L16.4028 17.0247L17.0972 17.7443ZM16.5932 18.0609L16.2069 17.1386L16.2065 17.1388L16.5932 18.0609ZM15.9821 18.2286V19.2286H16.0438L16.1051 19.221L15.9821 18.2286ZM15.8533 18.238L15.9395 19.2343L15.9397 19.2342L15.8533 18.238ZM12.025 17.5302L12.3638 16.5893L12.3638 16.5893L12.025 17.5302ZM9.033 16.1052L9.52678 15.2356L9.52676 15.2356L9.033 16.1052ZM5.47272 13.4974L6.13272 12.746L6.12305 12.7377L5.47272 13.4974ZM2.98481 11.0386L2.21936 11.6821L2.21938 11.6822L2.98481 11.0386ZM1.3977 8.86853L2.2542 8.35239L2.25418 8.35236L1.3977 8.86853ZM0.0250221 4.37007L-0.961718 4.20777L-0.974978 4.28838V4.37007H0.0250221ZM0.582657 3.40146L1.1985 4.18933L1.21886 4.17341L1.23838 4.15646L0.582657 3.40146ZM3.43517 0.924049L4.09089 1.67905L3.43517 0.924049ZM4.97939 1.14758L5.83427 0.628748L5.81172 0.591594L5.78603 0.556536L4.97939 1.14758ZM7.27427 4.92889L6.41939 5.44771L6.42698 5.46022L6.43493 5.4725L7.27427 4.92889ZM7.0169 6.17691L6.36118 5.4219L6.36118 5.4219L7.0169 6.17691ZM5.96597 7.08964L6.6217 7.84464L6.6217 7.84464L5.96597 7.08964ZM5.85874 7.35042H4.85874V7.45879L4.88195 7.56464L5.85874 7.35042ZM6.24479 8.24452L7.11143 7.74559L7.10748 7.73872L7.10341 7.7319L6.24479 8.24452ZM8.56112 10.815L9.22507 10.0673L9.21691 10.06L9.2086 10.053L8.56112 10.815ZM10.2769 12.1469L9.74214 12.9919L9.74227 12.992L10.2769 12.1469ZM12.3037 13.1154L12.475 12.1302L12.4744 12.1301L12.3037 13.1154ZM12.5717 13.162L12.4004 14.1473L12.4854 14.162H12.5717V13.162ZM12.7112 13.1341L12.9891 14.0947L12.9897 14.0945L12.7112 13.1341ZM12.8506 13.0689L13.5064 13.8239L13.5128 13.8182L12.8506 13.0689ZM14.0731 11.9885L13.4623 11.1967L13.4359 11.2171L13.4109 11.2392L14.0731 11.9885ZM15.553 11.8022L15.0907 12.689L15.308 12.8022H15.553V11.8022ZM15.5744 11.8022L16.0308 10.9125L15.8159 10.8022H15.5744V11.8022ZM19.7137 13.9257L20.1874 13.0451L20.1788 13.0404L20.1701 13.036L19.7137 13.9257ZM19.2611 14.6891C19.2601 14.6824 19.2584 14.6655 19.2611 14.6412C19.2637 14.6164 19.27 14.5908 19.2796 14.5671C19.2995 14.5177 19.3199 14.508 19.2939 14.5307L20.6056 16.0405C21.0714 15.6358 21.3393 15.0598 21.2389 14.3919L19.2611 14.6891ZM19.2968 14.5281L16.4443 16.9868L17.7501 18.5017L20.6026 16.043L19.2968 14.5281ZM16.4028 17.0247C16.3827 17.0441 16.3276 17.088 16.2069 17.1386L16.9796 18.9833C17.2735 18.8602 17.5543 18.6928 17.7916 18.4639L16.4028 17.0247ZM16.2065 17.1388C16.0739 17.1944 15.9587 17.2238 15.8591 17.2362L16.1051 19.221C16.4057 19.1837 16.6979 19.1014 16.98 18.9831L16.2065 17.1388ZM15.9821 17.2286C15.9128 17.2286 15.8136 17.2377 15.7668 17.2417L15.9397 19.2342C15.9739 19.2313 15.9974 19.2294 16.0123 19.2283C16.0198 19.2277 16.0223 19.2276 16.0213 19.2277C16.0207 19.2277 16.0175 19.2279 16.0124 19.228C16.0083 19.2282 15.9972 19.2286 15.9821 19.2286V17.2286ZM15.767 17.2417C15.7356 17.2444 15.6743 17.2473 15.5745 17.2473V19.2473C15.7036 19.2473 15.8282 19.2439 15.9395 19.2343L15.767 17.2417ZM15.5745 17.2473C15.3744 17.2473 14.9914 17.2152 14.3871 17.1349L14.1237 19.1175C14.7348 19.1987 15.2313 19.2473 15.5745 19.2473V17.2473ZM14.3871 17.1349C13.8766 17.0671 13.2071 16.8929 12.3638 16.5893L11.6862 18.471C12.6015 18.8006 13.4189 19.0239 14.1237 19.1175L14.3871 17.1349ZM12.3638 16.5893C11.5535 16.2976 10.6094 15.8503 9.52678 15.2356L8.53922 16.9748C9.68708 17.6266 10.7375 18.1294 11.6862 18.471L12.3638 16.5893ZM9.52676 15.2356C8.48562 14.6444 7.35432 13.8192 6.13266 12.7461L4.81277 14.2487C6.10762 15.3861 7.34991 16.2995 8.53924 16.9748L9.52676 15.2356ZM6.12305 12.7377C5.15245 11.9068 4.36447 11.1257 3.75023 10.3951L2.21938 11.6822C2.92059 12.5162 3.79122 13.3743 4.82238 14.257L6.12305 12.7377ZM3.75026 10.3951C3.11627 9.64099 2.62065 8.96051 2.2542 8.35239L0.541189 9.38467C0.975443 10.1053 1.53791 10.8715 2.21936 11.6821L3.75026 10.3951ZM2.25418 8.35236C1.87578 7.72448 1.60702 7.17963 1.43455 6.71422L-0.440822 7.40917C-0.212934 8.02414 0.118834 8.68385 0.541209 9.3847L2.25418 8.35236ZM1.43455 6.71422C1.24644 6.20658 1.13063 5.79979 1.07307 5.48487L-0.894341 5.84445C-0.808914 6.31187 -0.653059 6.83644 -0.440822 7.40917L1.43455 6.71422ZM1.07307 5.48487C1.00681 5.12233 0.994982 4.9089 1.00153 4.80645L-0.994386 4.67878C-1.01643 5.02338 -0.971065 5.42465 -0.894341 5.84445L1.07307 5.48487ZM1.00153 4.80645C1.01414 4.60933 1.02502 4.43666 1.02502 4.37007H-0.974978C-0.974978 4.35452 -0.974538 4.34453 -0.974666 4.34808C-0.974695 4.34887 -0.97483 4.35232 -0.97517 4.35941C-0.975843 4.37345 -0.97698 4.39471 -0.978687 4.42436C-0.982079 4.48329 -0.987284 4.56775 -0.994386 4.67878L1.00153 4.80645ZM1.01176 4.53238C1.01882 4.48946 1.03864 4.42121 1.0921 4.32504L-0.655998 3.35336C-0.802715 3.61731 -0.911585 3.90298 -0.961718 4.20777L1.01176 4.53238ZM1.0921 4.32504C1.13594 4.24617 1.17424 4.20829 1.1985 4.18933L-0.0331836 2.61359C-0.294891 2.81815 -0.49966 3.0721 -0.655998 3.35336L1.0921 4.32504ZM1.23838 4.15646L4.09089 1.67905L2.77945 0.169046L-0.0730645 2.64646L1.23838 4.15646ZM4.09089 1.67905C4.10078 1.67046 4.10728 1.66618 4.11015 1.66444C4.11291 1.66276 4.11343 1.66274 4.11208 1.66326C4.11069 1.66378 4.10966 1.66399 4.10984 1.66395C4.11012 1.66391 4.11368 1.66327 4.12149 1.66327V-0.336731C3.61533 -0.336731 3.15554 -0.157585 2.77945 0.169046L4.09089 1.67905ZM4.12149 1.66327C4.1303 1.66327 4.12556 1.66427 4.11173 1.66035C4.09726 1.65625 4.08195 1.64934 4.06898 1.64089L5.16058 -0.0349438C4.84074 -0.243281 4.48314 -0.336731 4.12149 -0.336731V1.66327ZM4.06898 1.64089C4.11163 1.66866 4.14455 1.70013 4.17275 1.73861L5.78603 0.556536C5.61405 0.321817 5.40391 0.123552 5.16058 -0.0349438L4.06898 1.64089ZM4.12451 1.6664L6.41939 5.44771L8.12915 4.41006L5.83427 0.628748L4.12451 1.6664ZM6.43493 5.4725C6.43009 5.46502 6.41697 5.44038 6.41085 5.4032C6.40484 5.36662 6.40991 5.34418 6.40965 5.34526L8.35336 5.81642C8.47339 5.32128 8.39585 4.82106 8.11361 4.38528L6.43493 5.4725ZM6.40965 5.34526C6.4021 5.37642 6.39268 5.39454 6.36118 5.4219L7.67262 6.93191C8.01287 6.6364 8.24653 6.25714 8.35336 5.81642L6.40965 5.34526ZM6.36118 5.4219L5.31025 6.33463L6.6217 7.84464L7.67262 6.93191L6.36118 5.4219ZM5.31025 6.33463C5.10631 6.51176 5.00678 6.72349 4.95731 6.8524L6.82451 7.56903C6.81822 7.5854 6.80354 7.62052 6.77566 7.66547C6.74806 7.70999 6.69959 7.77699 6.6217 7.84464L5.31025 6.33463ZM4.95731 6.8524C4.91534 6.96174 4.85874 7.13903 4.85874 7.35042H6.85874C6.85874 7.42503 6.84836 7.48119 6.84127 7.51196C6.83392 7.54389 6.82655 7.56372 6.82451 7.56903L4.95731 6.8524ZM4.88195 7.56464C4.97022 7.9671 5.15393 8.36813 5.38617 8.75714L7.10341 7.7319C6.9353 7.45033 6.86164 7.2553 6.83552 7.13619L4.88195 7.56464ZM5.37815 8.74345C5.59062 9.11252 5.89583 9.52579 6.27051 9.97486L7.80618 8.69356C7.46595 8.28579 7.24212 7.97259 7.11143 7.74559L5.37815 8.74345ZM6.27051 9.97486C6.67865 10.464 7.23322 10.999 7.91364 11.5771L9.2086 10.053C8.57357 9.51342 8.11296 9.06124 7.80618 8.69356L6.27051 9.97486ZM7.89717 11.5628C8.56468 12.1555 9.18079 12.6367 9.74214 12.9919L10.8117 11.302C10.3722 11.0238 9.84441 10.6172 9.22507 10.0673L7.89717 11.5628ZM9.74227 12.992C10.2622 13.321 10.7269 13.5825 11.1262 13.7596L11.937 11.9313C11.6643 11.8103 11.2923 11.606 10.8116 11.3019L9.74227 12.992ZM11.1262 13.7596C11.477 13.9151 11.8274 14.0478 12.133 14.1008L12.4744 12.1301C12.4227 12.1211 12.2583 12.0738 11.937 11.9313L11.1262 13.7596ZM12.1324 14.1007L12.4004 14.1473L12.743 12.1768L12.475 12.1302L12.1324 14.1007ZM12.5717 14.162C12.7556 14.162 12.923 14.1138 12.9891 14.0947L12.4332 12.1735C12.418 12.1779 12.4188 12.1771 12.4315 12.1745C12.4384 12.1732 12.4529 12.1704 12.4733 12.1679C12.4925 12.1655 12.5269 12.162 12.5717 12.162V14.162ZM12.9897 14.0945C13.1016 14.0621 13.314 13.9909 13.5063 13.8239L12.1949 12.3139C12.2704 12.2483 12.3376 12.2134 12.3707 12.1979C12.4061 12.1814 12.4294 12.1746 12.4327 12.1737L12.9897 14.0945ZM13.5128 13.8182L14.7353 12.7378L13.4109 11.2392L12.1884 12.3195L13.5128 13.8182ZM14.6839 12.7803C14.7565 12.7243 14.8389 12.6905 14.9739 12.6905V10.6905C14.4226 10.6905 13.9047 10.8554 13.4623 11.1967L14.6839 12.7803ZM14.9739 12.6905C15.0462 12.6905 15.0901 12.6962 15.1115 12.7003C15.1329 12.7044 15.1214 12.705 15.0907 12.689L16.0152 10.9155C15.6753 10.7383 15.303 10.6905 14.9739 10.6905V12.6905ZM15.553 12.8022H15.5744V10.8022H15.553V12.8022ZM15.1179 12.692L19.2573 14.8155L20.1701 13.036L16.0308 10.9125L15.1179 12.692ZM19.24 14.8064C19.3101 14.8441 19.3265 14.866 19.3195 14.858C19.3154 14.8533 19.3066 14.8421 19.2973 14.8242C19.2878 14.8059 19.2803 14.7856 19.2755 14.765L21.2245 14.316C21.0826 13.7004 20.651 13.2944 20.1874 13.0451L19.24 14.8064Z" fill="white" mask="url(#path-1-inside-1_1_133)"/>
</svg>
